<?xml version="1.0" encoding="UTF-8" standalone="no"?>
<!DOCTYPE svg PUBLIC "-//W3C//DTD SVG 1.1//EN" "http://www.w3.org/Graphics/SVG/1.1/DTD/svg11.dtd">
<svg width="100%" height="100%" viewBox="0 0 512 512" version="1.1" xmlns="http://www.w3.org/2000/svg" xmlns:xlink="http://www.w3.org/1999/xlink" xml:space="preserve" xmlns:serif="http://www.serif.com/" style="fill-rule:evenodd;clip-rule:evenodd;stroke-linejoin:round;stroke-miterlimit:2;">
    <g transform="matrix(0.857227,0,0,0.857227,36.6,36.6)">
        <circle cx="256" cy="256" r="256" style="fill:rgb(25,137,200);"/>
    </g>
    <g transform="matrix(34.9874,0,0,32.1561,-6228.06,-6104.58)">
        <g transform="matrix(12,0,0,12,181.57,201.596)">
            <path d="M0.506,-0.096C0.506,-0.088 0.506,-0.081 0.505,-0.075C0.505,-0.069 0.504,-0.064 0.503,-0.06C0.502,-0.056 0.501,-0.053 0.499,-0.05C0.497,-0.047 0.495,-0.044 0.491,-0.04C0.488,-0.036 0.481,-0.031 0.47,-0.025C0.46,-0.02 0.448,-0.014 0.433,-0.009C0.418,-0.003 0.401,0.001 0.382,0.005C0.363,0.008 0.342,0.01 0.32,0.01C0.277,0.01 0.238,0.004 0.203,-0.01C0.168,-0.023 0.139,-0.043 0.114,-0.07C0.09,-0.096 0.071,-0.129 0.058,-0.169C0.045,-0.209 0.039,-0.255 0.039,-0.308C0.039,-0.361 0.046,-0.409 0.06,-0.451C0.074,-0.492 0.094,-0.527 0.12,-0.556C0.146,-0.584 0.177,-0.605 0.213,-0.62C0.249,-0.635 0.288,-0.642 0.332,-0.642C0.349,-0.642 0.366,-0.641 0.382,-0.638C0.399,-0.635 0.414,-0.631 0.427,-0.626C0.441,-0.622 0.454,-0.616 0.465,-0.61C0.476,-0.604 0.484,-0.598 0.488,-0.594C0.492,-0.59 0.495,-0.586 0.497,-0.583C0.499,-0.58 0.5,-0.576 0.501,-0.572C0.502,-0.567 0.503,-0.562 0.503,-0.556C0.504,-0.549 0.504,-0.542 0.504,-0.533C0.504,-0.523 0.504,-0.515 0.503,-0.508C0.502,-0.501 0.501,-0.495 0.5,-0.491C0.498,-0.487 0.496,-0.484 0.494,-0.482C0.491,-0.48 0.489,-0.479 0.486,-0.479C0.481,-0.479 0.475,-0.482 0.467,-0.488C0.46,-0.493 0.45,-0.5 0.438,-0.507C0.426,-0.514 0.412,-0.52 0.396,-0.526C0.379,-0.531 0.36,-0.534 0.337,-0.534C0.312,-0.534 0.289,-0.529 0.27,-0.519C0.25,-0.509 0.233,-0.494 0.219,-0.475C0.206,-0.456 0.195,-0.433 0.188,-0.406C0.181,-0.379 0.177,-0.348 0.177,-0.314C0.177,-0.277 0.181,-0.245 0.189,-0.218C0.196,-0.191 0.207,-0.168 0.221,-0.151C0.236,-0.133 0.253,-0.12 0.273,-0.112C0.293,-0.103 0.315,-0.099 0.34,-0.099C0.363,-0.099 0.383,-0.101 0.399,-0.107C0.416,-0.112 0.43,-0.118 0.442,-0.125C0.454,-0.131 0.464,-0.137 0.471,-0.142C0.479,-0.147 0.485,-0.15 0.489,-0.15C0.493,-0.15 0.495,-0.149 0.497,-0.148C0.499,-0.147 0.501,-0.144 0.502,-0.14C0.503,-0.136 0.504,-0.131 0.505,-0.124C0.506,-0.117 0.506,-0.107 0.506,-0.096Z" style="fill:white;fill-rule:nonzero;"/>
        </g>
    </g>
</svg>
