<?xml version="1.0" encoding="UTF-8" standalone="no"?>
<!DOCTYPE svg PUBLIC "-//W3C//DTD SVG 1.1//EN" "http://www.w3.org/Graphics/SVG/1.1/DTD/svg11.dtd">
<svg width="100%" height="100%" viewBox="0 0 512 512" version="1.1" xmlns="http://www.w3.org/2000/svg" xmlns:xlink="http://www.w3.org/1999/xlink" xml:space="preserve" xmlns:serif="http://www.serif.com/" style="fill-rule:evenodd;clip-rule:evenodd;stroke-linecap:round;stroke-linejoin:round;stroke-miterlimit:1.5;">
    <g transform="matrix(0.857143,0,0,0.857143,36.5714,36.5714)">
        <circle cx="256" cy="256" r="256" style="fill:rgb(25,137,200);"/>
    </g>
    <g transform="matrix(34.984,0,0,32.1529,-6227.47,-6104.01)">
        <g transform="matrix(12,0,0,12,181.57,201.596)">
            <path d="M0.506,-0.096C0.506,-0.088 0.506,-0.081 0.505,-0.075C0.505,-0.069 0.504,-0.064 0.503,-0.06C0.502,-0.056 0.501,-0.053 0.499,-0.05C0.497,-0.047 0.495,-0.044 0.491,-0.04C0.488,-0.036 0.481,-0.031 0.47,-0.025C0.46,-0.02 0.448,-0.014 0.433,-0.009C0.418,-0.003 0.401,0.001 0.382,0.005C0.363,0.008 0.342,0.01 0.32,0.01C0.277,0.01 0.238,0.004 0.203,-0.01C0.168,-0.023 0.139,-0.043 0.114,-0.07C0.09,-0.096 0.071,-0.129 0.058,-0.169C0.045,-0.209 0.039,-0.255 0.039,-0.308C0.039,-0.361 0.046,-0.409 0.06,-0.451C0.074,-0.492 0.094,-0.527 0.12,-0.556C0.146,-0.584 0.177,-0.605 0.213,-0.62C0.249,-0.635 0.288,-0.642 0.332,-0.642C0.349,-0.642 0.366,-0.641 0.382,-0.638C0.399,-0.635 0.414,-0.631 0.427,-0.626C0.441,-0.622 0.454,-0.616 0.465,-0.61C0.476,-0.604 0.484,-0.598 0.488,-0.594C0.492,-0.59 0.495,-0.586 0.497,-0.583C0.499,-0.58 0.5,-0.576 0.501,-0.572C0.502,-0.567 0.503,-0.562 0.503,-0.556C0.504,-0.549 0.504,-0.542 0.504,-0.533C0.504,-0.523 0.504,-0.515 0.503,-0.508C0.502,-0.501 0.501,-0.495 0.5,-0.491C0.498,-0.487 0.496,-0.484 0.494,-0.482C0.491,-0.48 0.489,-0.479 0.486,-0.479C0.481,-0.479 0.475,-0.482 0.467,-0.488C0.46,-0.493 0.45,-0.5 0.438,-0.507C0.426,-0.514 0.412,-0.52 0.396,-0.526C0.379,-0.531 0.36,-0.534 0.337,-0.534C0.312,-0.534 0.289,-0.529 0.27,-0.519C0.25,-0.509 0.233,-0.494 0.219,-0.475C0.206,-0.456 0.195,-0.433 0.188,-0.406C0.181,-0.379 0.177,-0.348 0.177,-0.314C0.177,-0.277 0.181,-0.245 0.189,-0.218C0.196,-0.191 0.207,-0.168 0.221,-0.151C0.236,-0.133 0.253,-0.12 0.273,-0.112C0.293,-0.103 0.315,-0.099 0.34,-0.099C0.363,-0.099 0.383,-0.101 0.399,-0.107C0.416,-0.112 0.43,-0.118 0.442,-0.125C0.454,-0.131 0.464,-0.137 0.471,-0.142C0.479,-0.147 0.485,-0.15 0.489,-0.15C0.493,-0.15 0.495,-0.149 0.497,-0.148C0.499,-0.147 0.501,-0.144 0.502,-0.14C0.503,-0.136 0.504,-0.131 0.505,-0.124C0.506,-0.117 0.506,-0.107 0.506,-0.096Z" style="fill:white;fill-rule:nonzero;"/>
        </g>
    </g>
    <g transform="matrix(1.44678,0,0,1.44678,-175.645,-12.734)">
        <g transform="matrix(1.0081,0,0,1.06897,-6.54563,-15.0467)">
            <path d="M467.909,85.154C467.909,80.603 463.991,76.908 459.165,76.908L386.607,76.908C381.781,76.908 377.862,80.603 377.862,85.154L377.862,132.095C377.862,136.646 381.781,140.341 386.607,140.341L459.165,140.341C463.991,140.341 467.909,136.646 467.909,132.095L467.909,85.154Z" style="fill:white;stroke:rgb(25,137,200);stroke-width:17.31px;"/>
        </g>
        <g transform="matrix(0.724928,0,0,0.958818,115.566,4.00111)">
            <path d="M461.182,43.128C461.182,31.479 448.673,22.022 433.266,22.022L406.992,22.022C391.584,22.022 379.075,31.479 379.075,43.128L379.075,76.458C379.075,88.107 391.584,97.564 406.992,97.564L433.266,97.564C448.673,97.564 461.182,88.107 461.182,76.458L461.182,43.128Z" style="fill:none;stroke:rgb(25,137,200);stroke-width:38.16px;"/>
        </g>
    </g>
    <g transform="matrix(1,0,0,1,0,2)">
        <rect x="384.839" y="29.3" width="93.453" height="59.677" style="fill:rgb(25,137,200);"/>
    </g>
    <g transform="matrix(1.44678,0,0,1.44678,-175.645,-12.734)">
        <g transform="matrix(1.0081,0,0,1.06897,-6.54563,-15.0467)">
            <path d="M467.909,85.154C467.909,80.603 463.991,76.908 459.165,76.908L386.607,76.908C381.781,76.908 377.862,80.603 377.862,85.154L377.862,132.095C377.862,136.646 381.781,140.341 386.607,140.341L459.165,140.341C463.991,140.341 467.909,136.646 467.909,132.095L467.909,85.154Z" style="fill:white;"/>
        </g>
        <g transform="matrix(0.724928,0,0,0.958818,115.566,4.00111)">
            <path d="M461.182,43.128C461.182,31.479 448.673,22.022 433.266,22.022L406.992,22.022C391.584,22.022 379.075,31.479 379.075,43.128L379.075,76.458C379.075,88.107 391.584,97.564 406.992,97.564L433.266,97.564C448.673,97.564 461.182,88.107 461.182,76.458L461.182,43.128Z" style="fill:none;stroke:white;stroke-width:19.74px;"/>
        </g>
    </g>
</svg>
